# xmcd CD database file
#
# Track frame offsets:
#	150
#	13320
#	26392
#	36280
#	50410
#	61947
#	72760
#	85605
#	97975
#	111095
#	123005
#	135872
#
# Disc length: 2166 seconds
#
# Revision: 1
# Processed by: cddbd v1.4PL0 Copyright (c) Steve Scherf et al.
# Submitted via: CDex 1.50beta10
#
DISCID=8c08740c
DTITLE=Howlin' Wolf - The Best of Millenium Collection
DYEAR=2003
DGENRE=Blues
TTITLE0=Moanin' At Midnight
TTITLE1=Evil (Is Going On)
TTITLE2=The Natchez Burnin'
TTITLE3=Smokestack Lightnin'
TTITLE4=Sittin' On Top of The World
TTITLE5=Wang Dang Doodle
TTITLE6=Back Door Man
TTITLE7=Spoonful
TTITLE8=I Ain't Superstitious
TTITLE9=Built For Comfort
TTITLE10=Killing Floor
TTITLE11=The Red Rooster
EXTD=YEAR: 2003
EXTT0=
EXTT1=
EXTT2=
EXTT3=
EXTT4=
EXTT5=
EXTT6=
EXTT7=
EXTT8=
EXTT9=
EXTT10=
EXTT11=
PLAYORDER=
